# xmcd
#
# Track frame offsets:
#	150
#	16223
#	26971
#	34993
#	49905
#	65568
#	81244
#	91494
#	101715
#	117382
#	130495
#	143050
#	153400
#	163818
#	175607
#	187090
#	197121
#	209680
#	223119
#	235799
#	255194
#
# Disc length: 3538 seconds
#
# Revision: 1
# Processed by: cddbd v1.5.1PL0 Copyright (c) Steve Scherf et al.
# Submitted via: CDex 1.50Beta5
#
DISCID=390dd015
DTITLE=BIG HOUSE - PUNKER SHOT 3 Disc 2
DYEAR=2001
DGENRE=Rock
TTITLE0=GRAPPLING UNLIMITED/TIME OUR PARTING,THE
TTITLE1=BOW&ARROW/WE CAN LIVE AGAIN
TTITLE2=SUGAR LUNCH/NEW DAY
TTITLE3=STURDY STAMP/PROVE
TTITLE4=FRONT ROW/DOG
TTITLE5=ナルシストサムライ/22
TTITLE6=STIR UP/Is this love
TTITLE7=SPOKE!/FIRST STEP
TTITLE8=SUPER COLA/Quit A Ball
TTITLE9=MOVE/GET OVER THE WALL
TTITLE10=ELECTRIC SUMMER/Hey Sclssorman
TTITLE11=NOTICE/Time Passes
TTITLE12=FATIGUE/disneelamd
TTITLE13=10-FEET/PLANLESS
TTITLE14=SLEEPER/昨日見た夢
TTITLE15=CHINKEES,THE/X-Mas
TTITLE16=HMWR/Don’t forget
TTITLE17=FUNNY LABO/KONOTABI
TTITLE18=STUCK INSIDE/QUAGMIRE
TTITLE19=BATH CAULK/FOR THE NEXT GENERATION
TTITLE20=MINT SODA/Be★natural
EXTD=
EXTT0=
EXTT1=
EXTT2=
EXTT3=
EXTT4=
EXTT5=
EXTT6=
EXTT7=
EXTT8=
EXTT9=
EXTT10=
EXTT11=
EXTT12=
EXTT13=
EXTT14=
EXTT15=
EXTT16=
EXTT17=
EXTT18=
EXTT19=
EXTT20=
PLAYORDER=
